<svg width="53" height="52" viewBox="0 0 53 52" fill="none" xmlns="http://www.w3.org/2000/svg">
<ellipse cx="26.6074" cy="26" rx="26.1595" ry="26" fill="#CCE1F3"/>
<path fill-rule="evenodd" clip-rule="evenodd" d="M14.5337 26C14.5337 19.3833 19.9501 14 26.6073 14C33.2646 14 38.681 19.3833 38.681 26C38.681 32.6167 33.2646 38 26.6073 38C19.9501 38 14.5337 32.6167 14.5337 26ZM15.5399 25.9565C15.5399 31.9983 20.4848 36.9131 26.5636 36.9131C32.6424 36.9131 37.5873 31.9983 37.5873 25.9565C37.5873 19.9148 32.6424 15 26.5636 15C20.4848 15 15.5399 19.9148 15.5399 25.9565ZM29.1237 32H26.6083V23.5C26.6083 23.224 26.383 23 26.1053 23H24.093C23.8153 23 23.5899 23.224 23.5899 23.5C23.5899 23.776 23.8153 24 24.093 24H25.6022V32H23.0869C22.8092 32 22.5838 32.224 22.5838 32.5C22.5838 32.776 22.8092 33 23.0869 33H29.1237C29.4014 33 29.6267 32.776 29.6267 32.5C29.6267 32.224 29.4014 32 29.1237 32ZM26.6073 19C26.6073 19.5523 26.1569 20 25.6012 20C25.0455 20 24.5951 19.5523 24.5951 19C24.5951 18.4477 25.0455 18 25.6012 18C26.1569 18 26.6073 18.4477 26.6073 19Z" fill="#3E3832"/>
</svg>
