<svg xmlns="http://www.w3.org/2000/svg" width="22" height="22" fill="none">
    <circle cx="11" cy="11" r="11" fill="#C30000"/>
    <path fill="#fff" fill-rule="evenodd"
          d="M19.814 8.786h-1.831s-.126 0-.171.111l-1.014 3.104-1.012-3.104c-.045-.111-.172-.111-.172-.111h-3.52a.141.141 0 0 0-.14.14v1.053c0-.836-.89-1.193-1.41-1.193-1.167 0-1.947.768-2.19 1.937-.014-.775-.078-1.053-.287-1.338a1.343 1.343 0 0 0-.385-.353c-.31-.182-.59-.246-1.189-.246H5.79s-.127 0-.172.111l-.64 1.588v-1.56a.14.14 0 0 0-.14-.14H3.21s-.126 0-.172.112l-.665 1.651s-.067.165.085.165h.626v3.146c0 .079.062.14.14.14h1.614a.14.14 0 0 0 .14-.14v-3.146h.63c.36 0 .437.01.577.076a.4.4 0 0 1 .203.171c.085.16.106.353.106.92v1.98c0 .078.063.14.14.14h1.548s.174 0 .244-.173l.343-.848c.456.639 1.206 1.02 2.139 1.02h.204s.175 0 .245-.172l.597-1.48v1.512c0 .079.064.14.14.14h1.58s.174 0 .244-.172c0 0 .632-1.57.634-1.581h.001c.025-.131-.14-.131-.14-.131h-.564V9.422l1.774 4.405c.069.172.244.172.244.172h1.866s.175 0 .245-.172l1.966-4.872c.068-.17-.129-.17-.129-.17Zm-7.86 3.329h-1.062a.766.766 0 1 1 0-1.532h.297c.421 0 .764.345.764.767v.765Z"
          clip-rule="evenodd"/>
</svg>