<svg width="38" height="38" viewBox="0 0 38 38" fill="none" xmlns="http://www.w3.org/2000/svg">
    <rect width="38" height="38" rx="4" fill="#3380A5"/>
    <path fill-rule="evenodd" clip-rule="evenodd" d="M16 9.25C16.4142 9.25 16.75 9.58579 16.75 10V11.25H21.25V10C21.25 9.58579 21.5858 9.25 22 9.25C22.4142 9.25 22.75 9.58579 22.75 10V11.25H26.5C27.1904 11.25 27.75 11.8096 27.75 12.5V25.5C27.75 26.1904 27.1904 26.75 26.5 26.75H11.5C10.8096 26.75 10.25 26.1904 10.25 25.5V12.5C10.25 11.8096 10.8096 11.25 11.5 11.25H15.25V10C15.25 9.58579 15.5858 9.25 16 9.25ZM22.75 14C22.75 14.4142 22.4142 14.75 22 14.75C21.5858 14.75 21.25 14.4142 21.25 14V12.75H16.75V14C16.75 14.4142 16.4142 14.75 16 14.75C15.5858 14.75 15.25 14.4142 15.25 14V12.75H11.75V16.25H26.25V12.75H22.75V14ZM11.75 25.25V17.75H26.25V25.25H11.75ZM13.75 20C13.75 19.5858 14.0858 19.25 14.5 19.25H15.5C15.9142 19.25 16.25 19.5858 16.25 20C16.25 20.4142 15.9142 20.75 15.5 20.75H14.5C14.0858 20.75 13.75 20.4142 13.75 20ZM17.75 20C17.75 19.5858 18.0858 19.25 18.5 19.25H19.5C19.9142 19.25 20.25 19.5858 20.25 20C20.25 20.4142 19.9142 20.75 19.5 20.75H18.5C18.0858 20.75 17.75 20.4142 17.75 20ZM22.5 19.25C22.0858 19.25 21.75 19.5858 21.75 20C21.75 20.4142 22.0858 20.75 22.5 20.75H23.5C23.9142 20.75 24.25 20.4142 24.25 20C24.25 19.5858 23.9142 19.25 23.5 19.25H22.5ZM17.75 23C17.75 22.5858 18.0858 22.25 18.5 22.25H19.5C19.9142 22.25 20.25 22.5858 20.25 23C20.25 23.4142 19.9142 23.75 19.5 23.75H18.5C18.0858 23.75 17.75 23.4142 17.75 23ZM22.5 22.25C22.0858 22.25 21.75 22.5858 21.75 23C21.75 23.4142 22.0858 23.75 22.5 23.75H23.5C23.9142 23.75 24.25 23.4142 24.25 23C24.25 22.5858 23.9142 22.25 23.5 22.25H22.5ZM13.75 23C13.75 22.5858 14.0858 22.25 14.5 22.25H15.5C15.9142 22.25 16.25 22.5858 16.25 23C16.25 23.4142 15.9142 23.75 15.5 23.75H14.5C14.0858 23.75 13.75 23.4142 13.75 23Z" fill="white"/>
</svg>
