<svg width="53" height="52" viewBox="0 0 53 52" fill="none" xmlns="http://www.w3.org/2000/svg">
<ellipse cx="26.6074" cy="26" rx="26.1595" ry="26" fill="#F5C176"/>
<path d="M23.8405 16C23.8405 16.3682 23.5308 16.6667 23.1488 16.6667C22.7667 16.6667 22.457 16.3682 22.457 16C22.457 14.8954 23.3861 14 24.5322 14H28.6825C29.8286 14 30.7576 14.8954 30.7576 16C30.7576 16.3682 30.448 16.6667 30.0659 16.6667C29.6839 16.6667 29.3742 16.3682 29.3742 16C29.3742 15.6318 29.0645 15.3333 28.6825 15.3333H24.5322C24.1502 15.3333 23.8405 15.6318 23.8405 16ZM18.9984 15.3333C19.3805 15.3333 19.6902 15.6318 19.6902 16C19.6902 16.3682 19.3805 16.6667 18.9984 16.6667C17.8524 16.6667 16.9233 17.5621 16.9233 18.6667V34.6667C16.9233 35.7712 17.8524 36.6667 18.9984 36.6667H34.2162C35.3623 36.6667 36.2914 35.7712 36.2914 34.6667V18.6667C36.2914 17.5621 35.3623 16.6667 34.2162 16.6667C33.8342 16.6667 33.5245 16.3682 33.5245 16C33.5245 15.6318 33.8342 15.3333 34.2162 15.3333C36.1264 15.3333 37.6748 16.8257 37.6748 18.6667V34.6667C37.6748 36.5076 36.1264 38 34.2162 38H18.9984C17.0883 38 15.5399 36.5076 15.5399 34.6667V18.6667C15.5399 16.8257 17.0883 15.3333 18.9984 15.3333Z" fill="black"/>
<path d="M30.6002 22.1735C30.8703 21.9132 31.3083 21.9132 31.5785 22.1735C31.8486 22.4339 31.8486 22.856 31.5785 23.1163L24.6613 29.783C24.3911 30.0434 23.9532 30.0434 23.683 29.783L20.9162 27.1163C20.646 26.856 20.646 26.4339 20.9162 26.1735C21.1863 25.9132 21.6243 25.9132 21.8944 26.1735L24.1722 28.3688L30.6002 22.1735Z" fill="black"/>
</svg>
