<svg width="38" height="38" viewBox="0 0 38 38" fill="none" xmlns="http://www.w3.org/2000/svg">
<rect width="38" height="38" rx="4" fill="#C77300"/>
<path fill-rule="evenodd" clip-rule="evenodd" d="M8.66602 7.66667C8.66602 6.74619 9.41221 6 10.3327 6H27.666C28.5865 6 29.3327 6.74619 29.3327 7.66667V30.3333C29.3327 31.2538 28.5865 32 27.666 32H10.3327C9.41221 32 8.66602 31.2538 8.66602 30.3333V7.66667ZM17.9993 24.3333C17.9993 23.781 18.4471 23.3333 18.9993 23.3333H23.666C24.2183 23.3333 24.666 23.781 24.666 24.3333C24.666 24.8856 24.2183 25.3333 23.666 25.3333H18.9993C18.4471 25.3333 17.9993 24.8856 17.9993 24.3333ZM18.9993 18C18.4471 18 17.9993 18.4477 17.9993 19C17.9993 19.5523 18.4471 20 18.9993 20H23.666C24.2183 20 24.666 19.5523 24.666 19C24.666 18.4477 24.2183 18 23.666 18H18.9993ZM15.0127 20H14.9993C14.4471 20 13.9993 19.5523 13.9993 19C13.9993 18.4477 14.4471 18 14.9993 18H15.0127C15.565 18 16.0127 18.4477 16.0127 19C16.0127 19.5523 15.565 20 15.0127 20ZM14.9993 23.3333C14.4471 23.3333 13.9993 23.781 13.9993 24.3333C13.9993 24.8856 14.4471 25.3333 14.9993 25.3333H15.0127C15.565 25.3333 16.0127 24.8856 16.0127 24.3333C16.0127 23.781 15.565 23.3333 15.0127 23.3333H14.9993ZM19.3327 12.3333C19.3327 11.781 19.7804 11.3333 20.3327 11.3333H23.666C24.2183 11.3333 24.666 11.781 24.666 12.3333C24.666 12.8856 24.2183 13.3333 23.666 13.3333H20.3327C19.7804 13.3333 19.3327 12.8856 19.3327 12.3333ZM17.7993 11.6001C18.1307 11.1582 18.0412 10.5314 17.5993 10.2001C17.1575 9.86869 16.5307 9.95823 16.1993 10.4001L14.8912 12.1443L14.3731 11.6263C13.9826 11.2358 13.3494 11.2358 12.9589 11.6263C12.5684 12.0168 12.5684 12.65 12.9589 13.0405L14.2922 14.3738C14.4972 14.5788 14.7811 14.6848 15.0702 14.6642C15.3594 14.6437 15.6254 14.4986 15.7993 14.2667L17.7993 11.6001Z" fill="white"/>
</svg>
